<svg width="142" height="189" viewBox="0 0 142 189" fill="none" xmlns="http://www.w3.org/2000/svg">
<circle cx="71" cy="71.4492" r="69.0278" stroke="white" stroke-width="3.94444"/>
<path d="M21.2919 118.779C31.5474 117.595 41.4103 108.72 26.6183 93.338C17.7424 82.6863 10.7641 64.108 46.7357 60.7946C35.8885 64.7391 25.268 78.5455 46.7357 78.5455C70.4016 78.5455 85.8644 80.9114 97.0274 82.6871C123.059 86.8281 126.703 102.975 126.609 111.678" stroke="white" stroke-width="3.94444" stroke-linecap="round" stroke-linejoin="round"/>
<path d="M5.91797 50.7363C14.2013 51.3279 32.0696 54.1679 46.743 60.7946C59.3652 55.864 94.1946 49.4346 139.635 63.1613" stroke="white" stroke-width="3.94444" stroke-linecap="round" stroke-linejoin="round"/>
<path d="M81.2864 101.766V97.8329H75.1125V100.455V104.06V107.338V110.943V114.221V117.826V121.268V124.709H77.1704V128.643H73.0545H68.9386H64.8226V124.709H66.5376V121.268V117.826V114.221V110.943V107.338V104.06V100.455V97.8329H60.7067V101.766H57.9627H55.2188V97.8329V95.2108V92.5887L60.3896 92.3659L60.0466 22.2249L70.9965 14.2536L82.1058 22.4477V27.8557V33.2638V38.8358V43.7522V48.6686V53.9128V58.8292V64.729V69.3176V74.5618V79.806V85.378V90.6221V92.5887H86.7743V95.4957V97.8329V101.766H84.0303H81.2864Z" fill="#181818"/>
<path d="M75.1125 97.8329H81.2864V101.766H84.0303M75.1125 97.8329V100.455M75.1125 97.8329H66.5376M75.1125 124.709H77.1704V128.643H73.0545M75.1125 124.709V121.268M75.1125 124.709H73.0545M66.5376 124.709H64.8226V128.643H68.9386M66.5376 124.709V121.268M66.5376 124.709H68.9386M66.5376 97.8329H60.7067V101.766H57.9627M66.5376 97.8329V100.455M66.5376 100.455H75.1125M66.5376 100.455V104.06M75.1125 100.455V104.06M66.5376 104.06H75.1125M66.5376 104.06V107.338M75.1125 104.06V107.338M66.5376 107.338H75.1125M66.5376 107.338V110.943M75.1125 107.338V110.943M66.5376 110.943H75.1125M66.5376 110.943V114.221M75.1125 110.943V114.221M66.5376 114.221H75.1125M66.5376 114.221V117.826M75.1125 114.221V117.826M66.5376 117.826H75.1125M66.5376 117.826V121.268M75.1125 117.826V121.268M66.5376 121.268H75.1125M68.9386 124.709V128.643M68.9386 124.709H73.0545M68.9386 128.643H73.0545M73.0545 124.709V128.643M70.9965 92.5887L60.3896 92.3659M70.9965 92.5887V88.3278V83.0836V77.5117V72.5952V67.0233V61.7791V56.8627V51.2907V46.3743V41.1301V36.2137V31.2972V26.0531V20.1533V14.2536M70.9965 92.5887H76.1415H82.1058M70.9965 14.2536L60.0466 22.2249L60.3896 92.3659M70.9965 14.2536L82.1058 22.4477V27.8557V33.2638V38.8358V43.7522V48.6686V53.9128V58.8292V64.729V69.3176V74.5618V79.806V85.378V90.6221V92.5887M60.3896 92.3659L55.2188 92.5887V95.2108M82.1058 92.5887H86.7743V95.4957M55.2188 95.2108V97.8329V101.766H57.9627M55.2188 95.2108L57.8484 95.2346M86.7743 95.4957V97.8329V101.766H84.0303M86.7743 95.4957L84.1447 95.472M57.8484 95.2346L57.9627 101.766M57.8484 95.2346L84.1447 95.472M84.1447 95.472L84.0303 101.766" stroke="white" stroke-width="3.94444"/>
<path d="M22.4414 187.911V166.487H27.5091V183.873H33.9776V166.487H39.0041V183.873H45.5138V166.487H50.5815V187.911H22.4414Z" fill="white"/>
<path d="M56.4008 188.282C55.9338 188.282 55.5081 188.241 55.1235 188.158C54.739 188.103 54.3545 188.007 53.9699 187.87V183.75C54.2171 183.86 54.4781 183.942 54.7527 183.997C55.0549 184.052 55.3021 184.079 55.4943 184.079C56.0437 184.079 56.4832 183.942 56.8128 183.667C57.1424 183.393 57.4033 182.898 57.5956 182.184C57.7878 181.47 57.9114 180.495 57.9664 179.259C58.0488 177.995 58.1037 176.389 58.1312 174.438L58.1724 166.487H65.9181C68.4726 166.487 70.3953 167.173 71.6862 168.547C73.0046 169.92 73.6638 171.925 73.6638 174.562V187.911H68.555V175.345C68.555 173.724 68.2803 172.529 67.7309 171.76C67.2091 170.991 66.3301 170.607 65.0941 170.607H62.9517L62.8693 175.427C62.8418 177.954 62.6907 180.042 62.4161 181.69C62.1414 183.338 61.7431 184.656 61.2212 185.645C60.7268 186.606 60.0676 187.293 59.2436 187.705C58.4471 188.09 57.4994 188.282 56.4008 188.282Z" fill="white"/>
<path d="M77.2795 187.911L82.0588 179.836C80.8503 179.231 79.8752 178.394 79.1336 177.322C78.4194 176.251 78.0623 175.056 78.0623 173.738V173.079C78.0623 172.035 78.2683 171.101 78.6803 170.277C79.0924 169.426 79.6692 168.698 80.4108 168.094C81.1524 167.462 82.0176 166.981 83.0064 166.651C83.9952 166.294 85.0802 166.116 86.2613 166.116H86.6321C87.4286 166.116 88.2252 166.198 89.0217 166.363C89.8183 166.5 90.6011 166.72 91.3702 167.022C92.1392 167.297 92.8809 167.654 93.595 168.094C94.3366 168.533 95.0233 169.027 95.655 169.577V187.911H90.7522V180.742H86.6733L82.6768 187.911H77.2795ZM87.1677 176.993H90.7934V171.39C90.5462 171.17 90.2577 170.991 89.9281 170.854C89.626 170.717 89.2964 170.593 88.9393 170.483C88.5822 170.373 88.2252 170.291 87.8681 170.236C87.511 170.181 87.154 170.154 86.7969 170.154H86.5497C85.451 170.154 84.572 170.428 83.9128 170.978C83.2811 171.499 82.9652 172.214 82.9652 173.12V173.491C82.9652 173.958 83.0614 174.411 83.2536 174.85C83.4459 175.262 83.7206 175.633 84.0776 175.963C84.4347 176.265 84.8742 176.512 85.3961 176.704C85.9179 176.897 86.5085 176.993 87.1677 176.993Z" fill="white"/>
<path d="M98.7918 187.911L105.919 176.952V176.787L99.1214 166.487H104.889L109.216 173.779H109.422L113.583 166.487H119.269L112.512 176.787V176.952L119.557 187.911H113.789L109.257 180.042H109.051L104.477 187.911H98.7918Z" fill="white"/>
</svg>
