<svg width="142" height="143" viewBox="0 0 142 143" fill="none" xmlns="http://www.w3.org/2000/svg">
<circle cx="71" cy="71.4492" r="69.0278" stroke="#0057B8" stroke-width="3.94444"/>
<path d="M21.2919 118.779C31.5474 117.595 41.4103 108.72 26.6183 93.338C17.7424 82.6863 10.7641 64.108 46.7357 60.7946C35.8885 64.7391 25.268 78.5455 46.7357 78.5455C70.4016 78.5455 85.8644 80.9114 97.0274 82.6871C123.059 86.8281 126.703 102.975 126.609 111.678" stroke="#0057B8" stroke-width="3.94444" stroke-linecap="round" stroke-linejoin="round"/>
<path d="M5.91797 50.7363C14.2013 51.3279 32.0696 54.1679 46.743 60.7946C59.3652 55.864 94.1946 49.4346 139.635 63.1613" stroke="#0057B8" stroke-width="3.94444" stroke-linecap="round" stroke-linejoin="round"/>
<path d="M81.2864 101.766V97.8329H75.1125V100.455V104.06V107.338V110.943V114.221V117.826V121.268V124.709H77.1704V128.643H73.0545H68.9386H64.8226V124.709H66.5376V121.268V117.826V114.221V110.943V107.338V104.06V100.455V97.8329H60.7067V101.766H57.9627H55.2188V97.8329V95.2108V92.5887L60.3896 92.3659L60.0466 22.2249L70.9965 14.2536L82.1058 22.4477V27.8557V33.2638V38.8358V43.7522V48.6686V53.9128V58.8292V64.729V69.3176V74.5618V79.806V85.378V90.6221V92.5887H86.7743V95.4957V97.8329V101.766H84.0303H81.2864Z" fill="white"/>
<path d="M75.1125 97.8329H81.2864V101.766H84.0303M75.1125 97.8329V100.455M75.1125 97.8329H66.5376M75.1125 124.709H77.1704V128.643H73.0545M75.1125 124.709V121.268M75.1125 124.709H73.0545M66.5376 124.709H64.8226V128.643H68.9386M66.5376 124.709V121.268M66.5376 124.709H68.9386M66.5376 97.8329H60.7067V101.766H57.9627M66.5376 97.8329V100.455M66.5376 100.455H75.1125M66.5376 100.455V104.06M75.1125 100.455V104.06M66.5376 104.06H75.1125M66.5376 104.06V107.338M75.1125 104.06V107.338M66.5376 107.338H75.1125M66.5376 107.338V110.943M75.1125 107.338V110.943M66.5376 110.943H75.1125M66.5376 110.943V114.221M75.1125 110.943V114.221M66.5376 114.221H75.1125M66.5376 114.221V117.826M75.1125 114.221V117.826M66.5376 117.826H75.1125M66.5376 117.826V121.268M75.1125 117.826V121.268M66.5376 121.268H75.1125M68.9386 124.709V128.643M68.9386 124.709H73.0545M68.9386 128.643H73.0545M73.0545 124.709V128.643M70.9965 92.5887L60.3896 92.3659M70.9965 92.5887V88.3278V83.0836V77.5117V72.5952V67.0233V61.7791V56.8627V51.2907V46.3743V41.1301V36.2137V31.2972V26.0531V20.1533V14.2536M70.9965 92.5887H76.1415H82.1058M70.9965 14.2536L60.0466 22.2249L60.3896 92.3659M70.9965 14.2536L82.1058 22.4477V27.8557V33.2638V38.8358V43.7522V48.6686V53.9128V58.8292V64.729V69.3176V74.5618V79.806V85.378V90.6221V92.5887M60.3896 92.3659L55.2188 92.5887V95.2108M82.1058 92.5887H86.7743V95.4957M55.2188 95.2108V97.8329V101.766H57.9627M55.2188 95.2108L57.8484 95.2346M86.7743 95.4957V97.8329V101.766H84.0303M86.7743 95.4957L84.1447 95.472M57.8484 95.2346L57.9627 101.766M57.8484 95.2346L84.1447 95.472M84.1447 95.472L84.0303 101.766" stroke="#0057B8" stroke-width="3.94444"/>
</svg>
